<svg width="96" height="48" viewBox="0 0 96 48" xmlns="http://www.w3.org/2000/svg">
  <!-- AWS 몬스터들 -->
  
  <!-- Bug Goomba -->
  <g id="bug-goomba">
    <rect x="2" y="2" width="12" height="8" fill="#8B4513"/>
    <rect x="4" y="10" width="8" height="6" fill="#A0522D"/>
    <rect x="6" y="4" width="2" height="2" fill="#FF0000"/>
    <rect x="10" y="4" width="2" height="2" fill="#FF0000"/>
    <rect x="4" y="12" width="2" height="2" fill="#FFFFFF"/>
    <rect x="6" y="12" width="2" height="2" fill="#FFFFFF"/>
    <rect x="8" y="12" width="2" height="2" fill="#FFFFFF"/>
    <rect x="10" y="12" width="2" height="2" fill="#FFFFFF"/>
  </g>
  
  <!-- Code Koopa -->
  <g id="code-koopa" transform="translate(16,0)">
    <rect x="2" y="0" width="12" height="4" fill="#228B22"/>
    <rect x="0" y="4" width="16" height="8" fill="#32CD32"/>
    <rect x="4" y="12" width="8" height="4" fill="#FFDBAC"/>
    <rect x="6" y="6" width="2" height="2" fill="#000"/>
    <rect x="10" y="6" width="2" height="2" fill="#000"/>
    <rect x="2" y="14" width="2" height="2" fill="#FFFFFF"/>
    <rect x="12" y="14" width="2" height="2" fill="#FFFFFF"/>
  </g>
  
  <!-- Lambda Lizard -->
  <g id="lambda-lizard" transform="translate(32,0)">
    <rect x="4" y="0" width="8" height="4" fill="#FF6347"/>
    <rect x="2" y="4" width="12" height="8" fill="#FF4500"/>
    <rect x="0" y="12" width="16" height="4" fill="#FF6347"/>
    <rect x="6" y="6" width="2" height="2" fill="#FFFF00"/>
    <rect x="10" y="6" width="2" height="2" fill="#FFFF00"/>
    <rect x="4" y="10" width="8" height="2" fill="#000"/>
  </g>
  
  <!-- S3 Slime -->
  <g id="s3-slime" transform="translate(48,0)">
    <rect x="4" y="2" width="8" height="6" fill="#4169E1"/>
    <rect x="2" y="8" width="12" height="6" fill="#1E90FF"/>
    <rect x="0" y="14" width="16" height="2" fill="#87CEEB"/>
    <rect x="6" y="6" width="2" height="2" fill="#FFFFFF"/>
    <rect x="10" y="6" width="2" height="2" fill="#FFFFFF"/>
    <rect x="7" y="10" width="2" height="2" fill="#000"/>
  </g>
  
  <!-- EC2 Eagle -->
  <g id="ec2-eagle" transform="translate(64,0)">
    <rect x="6" y="0" width="4" height="2" fill="#DAA520"/>
    <rect x="4" y="2" width="8" height="4" fill="#B8860B"/>
    <rect x="0" y="6" width="16" height="4" fill="#FFD700"/>
    <rect x="2" y="10" width="12" height="4" fill="#DAA520"/>
    <rect x="6" y="4" width="2" height="2" fill="#000"/>
    <rect x="10" y="4" width="2" height="2" fill="#000"/>
    <rect x="8" y="6" width="2" height="2" fill="#FF8C00"/>
  </g>
  
  <!-- VPC Viper -->
  <g id="vpc-viper" transform="translate(80,0)">
    <rect x="6" y="0" width="4" height="4" fill="#9932CC"/>
    <rect x="4" y="4" width="8" height="6" fill="#8A2BE2"/>
    <rect x="2" y="10" width="12" height="4" fill="#9370DB"/>
    <rect x="0" y="14" width="16" height="2" fill="#DDA0DD"/>
    <rect x="6" y="6" width="2" height="2" fill="#FF0000"/>
    <rect x="10" y="6" width="2" height="2" fill="#FF0000"/>
    <rect x="4" y="8" width="2" height="2" fill="#FFFFFF"/>
    <rect x="10" y="8" width="2" height="2" fill="#FFFFFF"/>
  </g>
</svg>