<svg width="96" height="64" viewBox="0 0 96 64" xmlns="http://www.w3.org/2000/svg">
  <!-- AWS 자격증 마스터 NPC들 -->
  
  <!-- Cloud Practitioner -->
  <g id="cp-master">
    <rect x="0" y="0" width="4" height="2" fill="#FFD700"/>
    <rect x="4" y="0" width="8" height="2" fill="#FFD700"/>
    <rect x="12" y="0" width="4" height="2" fill="#FFD700"/>
    <rect x="2" y="2" width="12" height="4" fill="#FFDBAC"/>
    <rect x="4" y="6" width="2" height="2" fill="#000"/>
    <rect x="10" y="6" width="2" height="2" fill="#000"/>
    <rect x="6" y="8" width="4" height="2" fill="#000"/>
    <rect x="2" y="10" width="12" height="6" fill="#FF6B6B"/>
    <rect x="4" y="16" width="2" height="4" fill="#8B4513"/>
    <rect x="10" y="16" width="2" height="4" fill="#8B4513"/>
  </g>
  
  <!-- Solutions Architect -->
  <g id="saa-master" transform="translate(16,0)">
    <rect x="0" y="0" width="4" height="2" fill="#FFD700"/>
    <rect x="4" y="0" width="8" height="2" fill="#FFD700"/>
    <rect x="12" y="0" width="4" height="2" fill="#FFD700"/>
    <rect x="2" y="2" width="12" height="4" fill="#FFDBAC"/>
    <rect x="4" y="6" width="2" height="2" fill="#000"/>
    <rect x="10" y="6" width="2" height="2" fill="#000"/>
    <rect x="6" y="8" width="4" height="2" fill="#000"/>
    <rect x="2" y="10" width="12" height="6" fill="#4ECDC4"/>
    <rect x="4" y="16" width="2" height="4" fill="#8B4513"/>
    <rect x="10" y="16" width="2" height="4" fill="#8B4513"/>
  </g>
  
  <!-- Developer Associate -->
  <g id="dva-master" transform="translate(32,0)">
    <rect x="0" y="0" width="4" height="2" fill="#FFD700"/>
    <rect x="4" y="0" width="8" height="2" fill="#FFD700"/>
    <rect x="12" y="0" width="4" height="2" fill="#FFD700"/>
    <rect x="2" y="2" width="12" height="4" fill="#FFDBAC"/>
    <rect x="4" y="6" width="2" height="2" fill="#000"/>
    <rect x="10" y="6" width="2" height="2" fill="#000"/>
    <rect x="6" y="8" width="4" height="2" fill="#000"/>
    <rect x="2" y="10" width="12" height="6" fill="#45B7D1"/>
    <rect x="4" y="16" width="2" height="4" fill="#8B4513"/>
    <rect x="10" y="16" width="2" height="4" fill="#8B4513"/>
  </g>
  
  <!-- SysOps Admin -->
  <g id="soa-master" transform="translate(48,0)">
    <rect x="0" y="0" width="4" height="2" fill="#FFD700"/>
    <rect x="4" y="0" width="8" height="2" fill="#FFD700"/>
    <rect x="12" y="0" width="4" height="2" fill="#FFD700"/>
    <rect x="2" y="2" width="12" height="4" fill="#FFDBAC"/>
    <rect x="4" y="6" width="2" height="2" fill="#000"/>
    <rect x="10" y="6" width="2" height="2" fill="#000"/>
    <rect x="6" y="8" width="4" height="2" fill="#000"/>
    <rect x="2" y="10" width="12" height="6" fill="#F9CA24"/>
    <rect x="4" y="16" width="2" height="4" fill="#8B4513"/>
    <rect x="10" y="16" width="2" height="4" fill="#8B4513"/>
  </g>
  
  <!-- Solutions Architect Pro -->
  <g id="sap-master" transform="translate(64,0)">
    <rect x="0" y="0" width="4" height="2" fill="#FFD700"/>
    <rect x="4" y="0" width="8" height="2" fill="#FFD700"/>
    <rect x="12" y="0" width="4" height="2" fill="#FFD700"/>
    <rect x="2" y="2" width="12" height="4" fill="#FFDBAC"/>
    <rect x="4" y="6" width="2" height="2" fill="#000"/>
    <rect x="10" y="6" width="2" height="2" fill="#000"/>
    <rect x="6" y="8" width="4" height="2" fill="#000"/>
    <rect x="2" y="10" width="12" height="6" fill="#A55EEA"/>
    <rect x="4" y="16" width="2" height="4" fill="#8B4513"/>
    <rect x="10" y="16" width="2" height="4" fill="#8B4513"/>
  </g>
  
  <!-- DevOps Engineer Pro -->
  <g id="dop-master" transform="translate(80,0)">
    <rect x="0" y="0" width="4" height="2" fill="#FFD700"/>
    <rect x="4" y="0" width="8" height="2" fill="#FFD700"/>
    <rect x="12" y="0" width="4" height="2" fill="#FFD700"/>
    <rect x="2" y="2" width="12" height="4" fill="#FFDBAC"/>
    <rect x="4" y="6" width="2" height="2" fill="#000"/>
    <rect x="10" y="6" width="2" height="2" fill="#000"/>
    <rect x="6" y="8" width="4" height="2" fill="#000"/>
    <rect x="2" y="10" width="12" height="6" fill="#26DE81"/>
    <rect x="4" y="16" width="2" height="4" fill="#8B4513"/>
    <rect x="10" y="16" width="2" height="4" fill="#8B4513"/>
  </g>
</svg>